<?xml version="1.0" encoding="UTF-8" standalone="no"?>
<svg
   xmlns:dc="http://purl.org/dc/elements/1.1/"
   xmlns:cc="http://creativecommons.org/ns#"
   xmlns:rdf="http://www.w3.org/1999/02/22-rdf-syntax-ns#"
   xmlns:svg="http://www.w3.org/2000/svg"
   xmlns="http://www.w3.org/2000/svg"
   xml:space="preserve"
   style="enable-background:new 0 0 10 10;"
   viewBox="0 0 10 10"
   y="0px"
   x="0px"
   focusable="false"
   id="Layer_1"
   version="1.1"><metadata
     id="metadata9"><rdf:RDF><cc:Work
         rdf:about=""><dc:format>image/svg+xml</dc:format><dc:type
           rdf:resource="http://purl.org/dc/dcmitype/StillImage" /></cc:Work></rdf:RDF></metadata><defs
     id="defs7" /><path
     id="path2"
     d="M8.7,5.4c-0.1,0-0.2,0-0.3,0C8.1,4,7,2.9,5.5,2.7c0-0.2,0.1-0.6,0.7-1l0,0c0,0-1,0.3-1.2,1C5,2.5,4.9,2.2,4.4,2c0,0,0,0,0,0  c0.1,0.1,0.4,0.3,0.2,0.7C3.2,2.8,1.9,3.9,1.5,5.4c-0.1,0-0.2,0-0.3,0c-0.6,0-1.2,0.5-1.2,1.2c0,0.6,0.5,1.2,1.2,1.2  c0.1,0,0.3,0,0.4-0.1c0.1,0.2,0.2,0.5,0.4,0.7l1-0.7l0,0C2.8,7.3,2.6,6.8,2.6,6.3C2.6,5.8,2.7,5.3,3,5c0.7-0.6,1.5-0.3,1.9,0.2h0.1  C5.5,4.7,6.3,4.4,7,5c0.3,0.3,0.5,0.8,0.4,1.3c0,0.5-0.2,1-0.4,1.3l1,0.6c0.2-0.2,0.3-0.5,0.4-0.7c0.1,0.1,0.3,0.1,0.4,0.1  c0.6,0,1.2-0.5,1.2-1.2C9.9,5.9,9.4,5.4,8.7,5.4C8.7,5.4,8.7,5.4,8.7,5.4 M1.3,6.7c-0.1,0-0.2-0.1-0.2-0.2c0-0.1,0.1-0.2,0.2-0.2  c0,0,0.1,0,0.1,0c0,0.1,0,0.2,0,0.4C1.4,6.7,1.4,6.7,1.3,6.7 M8.7,6.7c-0.1,0-0.1,0-0.2-0.1c0-0.1,0-0.2,0-0.4c0,0,0.1,0,0.1,0  c0.1,0,0.2,0.1,0.2,0.2C8.9,6.6,8.8,6.7,8.7,6.7" /></svg>